<svg xmlns="http://www.w3.org/2000/svg" viewBox="0 0 189.74 191.8"><defs><style>.cls-1{fill:#abbca3;}.cls-1,.cls-10,.cls-11,.cls-12,.cls-13,.cls-14,.cls-15,.cls-16,.cls-17,.cls-18,.cls-19,.cls-2,.cls-20,.cls-21,.cls-22,.cls-23,.cls-24,.cls-27,.cls-28,.cls-29,.cls-3,.cls-30,.cls-4,.cls-5,.cls-6,.cls-7,.cls-8,.cls-9{stroke:#1d1d1b;stroke-miterlimit:10;}.cls-2{fill:#74625e;}.cls-3{fill:#c9e0bf;}.cls-4{fill:#828e7c;}.cls-5{fill:#924242;}.cls-6{fill:#f7c5ba;}.cls-7{fill:#917774;}.cls-8{fill:#de7a7a;}.cls-28,.cls-9{fill:#73916d;}.cls-10{fill:#cfada7;}.cls-11{fill:#f9d0d0;}.cls-12{fill:#a5635e;}.cls-13{fill:#e2e8df;}.cls-14{fill:#5b5f5a;}.cls-15,.cls-21{fill:none;}.cls-16{fill:#906964;}.cls-17{fill:#b98781;}.cls-18{fill:#70786c;}.cls-19{fill:#7b8b74;}.cls-20,.cls-25{fill:#fbe3dd;}.cls-21,.cls-27,.cls-28,.cls-29,.cls-30{stroke-width:0.5px;}.cls-22{fill:#fef4f2;}.cls-23{fill:#d3b4b0;}.cls-24,.cls-26{fill:#1d1d1b;}.cls-27{fill:#8c948b;}.cls-29{fill:#394937;}.cls-30{fill:#c7d3c4;}</style></defs><g id="Layer_2" data-name="Layer 2"><g id="Layer_1-2" data-name="Layer 1"><path class="cls-1" d="M158.38,166.72c-2.14,2-7.71,6.38-7.71,6.38l-.11-.15-19.53-27h0l-.55-.74c-.78-3.29-1.46-6.55-2-9.59-.18-1-.34-1.94-.51-2.94l30.32,33.95Z"/><path class="cls-2" d="M165.09,159.88c-1.72,2-6.71,6.84-6.71,6.84l-.11-.12L128,132.65c-.38-2.41-.71-4.87-1-7.22l.12-.11.21-.19L165,159.78Z"/><path class="cls-3" d="M171.47,151.84c-1.6,2.32-6.38,8-6.38,8l-.11-.1-37.69-34.65-.21.19-.12.09c-.06-.51-.12-1-.17-1.51h0c-.13-1.2-.25-2.36-.36-3.46l.53-.62.14-.16.16-.19.25-.3,43.87,32.61Z"/><path class="cls-4" d="M176.77,143.49,150,128.19s2.71-3.44,3-6.42l28.39,12.44A56.74,56.74,0,0,1,176.77,143.49Z"/><path class="cls-5" d="M184.72,125.11l-32.55-10.43s-1.81,6.8-3.51,8.92l3.25,1.49,1.05-3.32,28.39,12.44S183.69,128.6,184.72,125.11Z"/><path class="cls-6" d="M187.21,115.45l-36.76-8.11s-1.84,9.74-3.12,10.91l3.31,1.27,1.53-4.84,32.55,10.43A95.89,95.89,0,0,0,187.21,115.45Z"/><path class="cls-7" d="M188.65,106.19l-40.33-4.74s-.95,8.25-2.1,10.52l3.06.75,1.17-5.38,36.76,8.11S188.42,108.66,188.65,106.19Z"/><path class="cls-8" d="M189.2,95.48l-43.48.63s-.95,7.53-2.51,10.6l4.29.34.82-5.6,40.33,4.74A57.07,57.07,0,0,0,189.2,95.48Z"/><path class="cls-9" d="M188.6,85.31l-30.15,4.36c.42-1-.49-6.12-1-7l29.57-6.89S188.28,81.8,188.6,85.31Z"/><path class="cls-7" d="M158.32,86.24l-16.83,2.31a37.39,37.39,0,0,1-.42,11.81l3.78.92.87-5.17,43.48-.63a82.59,82.59,0,0,0-.6-10.17l-30.15,4.36Z"/><path class="cls-3" d="M184.6,66.59l-28.67,9.9-2.33-6.57L181,57A69.64,69.64,0,0,1,184.6,66.59Z"/><path class="cls-2" d="M176.7,48.52l-28.94,16.6,1.74,4.58,1.91,5,3.49-1.14-1.3-3.66L181,57A62.46,62.46,0,0,0,176.7,48.52Z"/><path class="cls-1" d="M149.5,69.7l-15.21,7.15a26.48,26.48,0,0,1,3.23,8.75,38.23,38.23,0,0,1,.74,8.71l3.47.49-.24-6.25,16.83-2.31-.83-3.54,29.57-6.89-2.46-9.22-28.67,9.9-1-2.91-3.49,1.14Z"/><path class="cls-10" d="M149.5,69.69l-15.21,7.16,0,.06a46.69,46.69,0,0,1,2.7,6.61,1.33,1.33,0,0,1,0,.19c0,.08.05.16.07.24s.11.42.16.63.15.67.22,1L134,86.4v0l0-.06a71,71,0,0,0-4.63-11.14l0,0s0,0,0-.06c-.37-.71-.77-1.42-1.18-2.15l0,0s0,0,0,0l0,0s0,0,0,0,0,0,0,0a43.85,43.85,0,0,0-4.17-6,28.85,28.85,0,0,0-2-2.22l-.07-.08,3.74-3.93h0a0,0,0,0,0,0,0h0l7.59-8h0l0,0c.57.48,5.17,4.41,5.39,6.1l3-2.49,2.62,4.23,27.17-20.26a89.67,89.67,0,0,1,5.35,8.41l-28.94,16.6Z"/><path class="cls-11" d="M165.12,32.26,143.24,52.55s-.73-1-2-2.42c-.71-.83-1.59-1.8-2.6-2.8l19.64-22A79.7,79.7,0,0,1,165.12,32.26Z"/><path class="cls-8" d="M141.29,50.13l-2.92,2.07a17.61,17.61,0,0,1,3.19,3.94l2.62,4.23,27.17-20.26-6.23-7.85L143.24,52.55Z"/><path class="cls-5" d="M150.61,18.91h0l-15.86,23c2.1-6.89,2.14-12.52,1.12-17.08l6.53-11.35h0l.28.18.12.07.29.18.2.12.45.28.25.15c.77.49,1.76,1.12,2.78,1.79l1.37.92C149,17.75,149.9,18.37,150.61,18.91Z"/><path class="cls-8" d="M115.77,2.82l-7,29.41a35.31,35.31,0,0,0-6-1.45L105.28,1A61.68,61.68,0,0,1,115.77,2.82Z"/><path class="cls-8" d="M82.88,31.66l-.38.11-.4.12-.4.12c-.43.12-1,.28-1.52.47l-.38.12-.13,0c-.83.26-1.72.56-2.54.84L77,33.1h0c-4.3-15.41-2.79-19.48-1.8-21.62,1.32-2.87-.94-2.58-.94-2.58a36.89,36.89,0,0,0-5,3.49L66.7,5l0-.15a96.39,96.39,0,0,1,9.84-2.56h0l0,.15h0Z"/><path class="cls-6" d="M61.35,40.64a18.54,18.54,0,0,0-2.56,1.64L40.86,17.92l-.13-.18.06,0,.38-.26c.19-.14.38-.28.57-.4,1.56-1.06,4.66-3.14,7.18-4.49l.1.17,11,18.45h0A34.37,34.37,0,0,0,61.35,40.64Z"/><path class="cls-12" d="M138.39,52.22l3.17,3.92-3,2.49-5.39-6.1,0,0h0c-.7-.65-1.35-1.24-1.95-1.76l0-.07a59,59,0,0,0,3.5-8.75h0l15.86-23h0l.06.05.07.06,7.59,6.29-19.64,22,2.6,2.8-2.92,2.07Z"/><path class="cls-5" d="M124.88,5.41v0l-1.06,3.39c-4.31-.71-2.69,1.67-2.69,1.67a26.56,26.56,0,0,1,.83,4.32l-7.14,23-.09,0-.27-.08-.14,0c-.77-.25-2.31-.71-4.15-1.16l-.09,0h0a43.79,43.79,0,0,0-4.56-.93l.38-4.15h0l.11,0,.05,0,.14,0,.12,0,2.52.74h0l6.94-29.36V2.82A62.72,62.72,0,0,1,124.88,5.41Z"/><path class="cls-13" d="M176.77,143.49a50.07,50.07,0,0,1-5.3,8.35l-.1-.07L127.5,119.16l-.25.3-.16.19-.14.16-.53.59c-.34-3.36-.55-6.17-.67-7.87h0a40.91,40.91,0,0,0,4-12.94,38.14,38.14,0,0,0,.28-6.92h0a1.49,1.49,0,0,0,0-.21v-.06A39.31,39.31,0,0,0,126.3,78s0,0,0-.06a1,1,0,0,1-.07-.15l3.16-2.61L134,86.3l0,.06v0l3.49-.79s.06.29.16.82l.15.91c0,.17,0,.36.08.57s0,.35.07.54L138,89c.12,1.26.22,2.78.22,4.45,0,.28,0,.58,0,.88l3.48.49a25.5,25.5,0,0,1-.64,5.48,0,0,0,0,0,0,0s0,0,0,0l3.77.92v0a13.52,13.52,0,0,1-1.63,5.41h0l4.28.33a14.33,14.33,0,0,1-1.28,4.92h0l3.07.74s0,.06,0,.17,0,.12-.05.2,0,.15-.06.24l-.06.24-.06.23c0,.15-.08.31-.13.48s0,.06,0,.09l-.24.83a3.66,3.66,0,0,1-.13.44,1.66,1.66,0,0,1-.06.21c0,.06-.05.13-.07.2s-.08.21-.11.32a8.67,8.67,0,0,1-.92,1.88l3.31,1.27a.08.08,0,0,1,0,0,.31.31,0,0,1,0,.08,11.43,11.43,0,0,1-1.79,3.76,1.92,1.92,0,0,1-.16.21l3.25,1.49v0l-1.89,3h0l0,0,18.73,10.7.9.52,7.07,4Z"/><path class="cls-10" d="M129.33,75.07c-.37-.72-.77-1.43-1.18-2.15A15.6,15.6,0,0,1,129.33,75.07Z"/><path class="cls-10" d="M129.75,99.58a38.14,38.14,0,0,0,.28-6.92A21,21,0,0,1,129.75,99.58Z"/><path class="cls-10" d="M133.16,52.48l-7.59,8a86.53,86.53,0,0,0,5.64-9.73l0-.07A21.54,21.54,0,0,1,133.16,52.48Z"/><path class="cls-9" d="M142.4,13.45h0l-6.53,11.35A24.23,24.23,0,0,0,131.24,15l2.66-6h0l.12.05A54.68,54.68,0,0,1,142.4,13.45Z"/><path class="cls-14" d="M108.52,53.6a20.84,20.84,0,0,0-2.4-1.22l4-15.92.09,0,4.15,1.16.14,0,.27.08.09,0,7.14-23C124,33.15,108.52,53.6,108.52,53.6Z"/><path class="cls-14" d="M133.9,9h0l-2.66,6a23.25,23.25,0,0,0-7.1-6.12l-.32-.05,1.06-3.39h0l.37.13,1.81.64.39.14.47.17.1,0c.22.09.45.17.67.27l.75.3,1.59.65.33.15.28.11.14.06.14.05.31.14.67.3.58.25.19.08.06,0h0l0,0h0Z"/><path class="cls-15" d="M131.64,8l.28.12c-.18-.08-.36-.16-.56-.23Z"/><path class="cls-10" d="M127.92,6.51c-1-.39-2-.75-3-1.08v0C125.85,5.72,126.9,6.1,127.92,6.51Z"/><path class="cls-10" d="M133.9,9l-.23-.11.24.1Z"/><path class="cls-7" d="M86.24.81l4.31,32.68s-2.13.71-4.75,1.67c-1.32.48-2.76,1-4.12,1.56L79.8,32.6l3.08-.94L76.5,2.24A57,57,0,0,1,86.24.81Z"/><path class="cls-16" d="M110.08,36.46l-4,15.92a25.59,25.59,0,0,0-10.35-2l0-49.81H96l7.44.37,1.68.08h.19v.08l-2.44,29.66.13,0H103l2.5.48.14,0,.08,0h.11l-.38,4.15,4.56.93Z"/><path class="cls-5" d="M63.14,19.47a23.85,23.85,0,0,0-3.09,11.69L49,12.71l-.1-.17a94.21,94.21,0,0,1,8.95-4.45l.07.16Z"/><path class="cls-17" d="M14,46.75,41,61.84a19.85,19.85,0,0,0-3.1,6.54L9.1,56.17A103.68,103.68,0,0,1,14,46.75Z"/><path class="cls-17" d="M5.57,65.17l30,8.58a33.42,33.42,0,0,0-1.91,8.12L3.12,73.78S4.34,68.61,5.57,65.17Z"/><path class="cls-5" d="M.91,105l31.2-4.21a19.06,19.06,0,0,0,1.23,7L2.45,115.36A81.87,81.87,0,0,1,.91,105Z"/><path class="cls-18" d="M8.14,133.7l29.05-13.64,3.09,6.62L12.62,142.89A65.72,65.72,0,0,1,8.14,133.7Z"/><path class="cls-5" d="M17.79,151.19l26-19.88a41.67,41.67,0,0,0,3.75,6.21L24.44,159.67A77.71,77.71,0,0,1,17.79,151.19Z"/><path class="cls-11" d="M31.14,166.57l21-24.85a50.58,50.58,0,0,0,5.35,5.16L38.47,172.72A84.26,84.26,0,0,1,31.14,166.57Z"/><path class="cls-2" d="M32.39,104.32l4.23-1a19.73,19.73,0,0,1-1.25-4.45,34.52,34.52,0,0,1-.49-5L.51,95s.11,6.95.4,10l31.2-4.21S31.44,100.81,32.39,104.32Z"/><path class="cls-2" d="M35.37,98.83l4.18-.2a42.13,42.13,0,0,1-.62-5.12,38.46,38.46,0,0,1,0-5.36l-37.71-4S.42,91.49.51,95l34.37-1.25A20.57,20.57,0,0,0,35.37,98.83Z"/><path class="cls-9" d="M38.93,93.51l3.67-.08a31.9,31.9,0,0,1,1.48-14l-9.54-2.32-.85,4.73L3.12,73.78A54,54,0,0,0,1.24,84.19l37.71,4S38.87,92.73,38.93,93.51Z"/><path class="cls-17" d="M39.3,64.73,51,71.54a68.8,68.8,0,0,0-3.15,8.23,40.58,40.58,0,0,0-1.54,7l-3.64-.88s.89-4.08,1.46-6.47l-9.54-2.32,1.06-3.39-30-8.58s2-5.75,3.53-9L37.93,68.38A17.28,17.28,0,0,1,39.3,64.73Z"/><path class="cls-19" d="M47.8,79.77,51,81.15a71.46,71.46,0,0,1,2.5-6.72c1.27-2.94,2.9-6,4.6-7.36l-38.31-29A102.68,102.68,0,0,0,14,46.75L41,61.84a14.27,14.27,0,0,0-1.73,2.89L51,71.54S48.56,77,47.8,79.77Z"/><path class="cls-19" d="M53.54,74.43l3,1.43s3.37-8.54,7.54-10.74L26.16,30.49s-4,4.29-6.33,7.56l38.31,29S54.63,71.73,53.54,74.43Z"/><path class="cls-20" d="M59.71,69.76l2.82,2s3.34-4.84,7.19-6.83L33.47,23.44a73.68,73.68,0,0,0-7.31,7L64.1,65.12A13.68,13.68,0,0,0,59.71,69.76Z"/><path class="cls-18" d="M38.71,123.32l3-1.64A21.75,21.75,0,0,1,38,113.1L4.76,124.41a61,61,0,0,0,3.38,9.29l29.05-13.64Z"/><path class="cls-7" d="M64.72,147.43,47,178l-.22.38s-5.21-3.17-8.35-5.63l.26-.36,18.8-25.47-2.71-2.42L57,141.2h0l0,0,0,0,.12.09c.08.07.19.16.33.26a2.31,2.31,0,0,0,.23.18l.38.3.14.11.3.24.09.07.23.18.49.39.21.17.36.29.38.31.38.3.39.31C62.54,145.65,64,146.83,64.72,147.43Z"/><path class="cls-20" d="M70.14,129.3a103.24,103.24,0,0,1,0,10.44l0,.06-2.82,5.12-.2-.11a25.87,25.87,0,0,1-4.25-2.87l-1.75,2.53-.39-.31-.38-.3-.38-.31-.26-.2-.1-.09-.21-.17L59.2,143l-.34-.28-.23-.18-.09-.07-.3-.24-.14-.11L58,142l-.24-.2a2.31,2.31,0,0,1-.23-.18c-.14-.1-.25-.19-.33-.26l-.12-.09,0,0,0,0h0l-2.13,3.27-.21-.2a20.67,20.67,0,0,1-2.31-2.41l-.06-.07h0l0,0L31.42,166.22l-.23.28-.05.07c-2.62-2.38-6.71-6.9-6.71-6.9l.1-.09.22-.21h0l22.78-21.84-1.78-2.61,0,0v0l25.92-21.11C71.49,114.74,69.79,126,70.14,129.3Z"/><path class="cls-10" d="M95.77,50.37a35.12,35.12,0,0,0-7.76.92L85.8,35.16l.49-.18,1.36-.49.81-.28.36-.13.34-.11.25-.09.33-.12.24-.08.57-.19L86.26,1l0-.16A79.08,79.08,0,0,1,95.72.54v0Z"/><path class="cls-20" d="M69.23,12.38a26.08,26.08,0,0,0-6.09,7.09L57.94,8.25l-.07-.16A93.42,93.42,0,0,1,66.65,4.8l0,.15Z"/><path class="cls-20" d="M88,51.29a30.52,30.52,0,0,0-4.51,1.36c-2.89-7.81-4.94-14.08-6.37-19.15l2.54-.86.13,0,1.88,4.12,4.12-1.56Z"/><path class="cls-20" d="M70.89,59.61l-.32,12.58-4.51-4.53,3.65-2.74L33.63,23.63l-.14-.16,0,0c.77-.69,1.61-1.39,2.44-2.05l.61-.5.6-.46,1.13-.88c.55-.41,1-.78,1.44-1.06l.34-.25.32-.23.2-.15.13-.1,0,0,.13.18L58.79,42.28l2.57-1.61A59.69,59.69,0,0,0,70.89,59.61Z"/><path class="cls-6" d="M71.65,113.67a.23.23,0,0,1,0,.07L45.71,134.85l0,0-.1-.17-1.38-2.48h0l-.24-.45-.11-.21,0-.08,0-.08v0l-25.64,19.6h0l-.2.15-.14.11a52.9,52.9,0,0,1-5.17-8.3l.18-.1.18-.11,9.56-5.6,4.66-2.74,13.08-7.67-1.57-3.35,3-1.64-.16-.21-.1-.13-.1-.14a.83.83,0,0,1-.08-.12A15,15,0,0,1,39.13,117l28.73-17C70,107.65,71.65,113.67,71.65,113.67Z"/><path class="cls-5" d="M66.76,84.49c-1.13,2.68-.38,10.11-.38,10.11.51,1.82,1,3.61,1.48,5.32L39.13,117v0l0,0A13.66,13.66,0,0,1,38,113.1L5.14,124.28l-.11,0-.28.09s-1.7-5.9-2.31-9l.32-.08.08,0,30.5-7.44-.91-3.26,4.19-1.28v0l0-.05-1.22-4.38,4.17-.2-.61-5.12,3.67-.08s0-.11,0-.32a.15.15,0,0,0,0-.06,4530964302791.64,4530964302791.64,0,0,0,0-.38c0-.49-.08-1.19-.12-2,0-.24,0-.5,0-.77a21.44,21.44,0,0,1,.24-4h0l3.63.88a.28.28,0,0,1,0-.06s0,0,0-.06c.15-.73.88-4.51,1.35-6.34l0-.11a.14.14,0,0,0,0-.06s0,0,0,0l.11-.37L51,81.15a0,0,0,0,1,0,0s0-.07,0-.13h0s0,0,0,0h0s0,0,0,0c.36-1,1.81-4.93,2.29-6.17,0-.09.07-.17.09-.23l0-.09,3,1.44h0a0,0,0,0,0,0,0h0s0,0,0,0l0-.07c.35-.72,2-4.08,2.83-5.55l.14-.23.12-.19h0l2.82,2,.17-.24.13-.17.28-.38.49-.62A16.44,16.44,0,0,1,66,67.68l0,0,4.51,4.53,0,2S67.88,81.83,66.76,84.49Z"/><path class="cls-21" d="M105.12,96.68c-.78,1.94-3,3.59-6.89,2.52,0,0-5.72,1.75-7.18-2.81,0,0,.19-.68,1.07.19S94,98.91,97.26,98v-9.8l-5-4.95s-.48-1.16,1.36-.48a16.87,16.87,0,0,1,4.27,3s2.52-3,4.46-3.21,0,2.05,0,2.05l-4,3.88V98s4,2.23,5.63-2.23C104.05,95.81,105.89,94.74,105.12,96.68Z"/><path class="cls-21" d="M126.07,124.5l.5-.42Z"/><path class="cls-21" d="M127,123.74v0l-.17.14a2.13,2.13,0,0,1-.22.18l.21-.19Z"/><path class="cls-21" d="M122.78,75.2a12.08,12.08,0,0,1-2.08,1.07h0a10.11,10.11,0,0,1-4.18.84,7,7,0,0,1-6-3.79c-.16-.26-.31-.54-.46-.84a7.5,7.5,0,0,0,.39,1c.8,1.71,2.89,5.07,7,5a10.22,10.22,0,0,0,4.11-1h0a18.35,18.35,0,0,0,1.92-1Z"/><path class="cls-21" d="M77,33.09h0l-.53.17Z"/><path class="cls-21" d="M77.13,33.05h0l-.11,0Z"/><path class="cls-21" d="M61.74,39.9l-.38.23a0,0,0,0,1,0,0Z"/><path class="cls-21" d="M64.45,42.82l-.55.4.54-.44A.08.08,0,0,0,64.45,42.82Z"/><path class="cls-21" d="M84.8,72.49a9.35,9.35,0,0,1-.58,1.68c-.84,1.84-2.66,4.5-6.24,4.4a11.86,11.86,0,0,1-5.82-2V75.48a13.53,13.53,0,0,0,4.33,1.62,6.91,6.91,0,0,0,7.58-3.23A9.9,9.9,0,0,0,84.8,72.49Z"/><path class="cls-21" d="M123.46,76.46a18.35,18.35,0,0,1-1.92,1h0a10.22,10.22,0,0,1-4.11,1c-4.12,0-6.21-3.33-7-5a7.5,7.5,0,0,1-.39-1c.15.3.3.58.46.84a7,7,0,0,0,6,3.79,10.11,10.11,0,0,0,4.18-.84h0a12.08,12.08,0,0,0,2.08-1.07Z"/><path class="cls-21" d="M84.8,72.49a9.35,9.35,0,0,1-.58,1.68c-.84,1.84-2.66,4.5-6.24,4.4a11.86,11.86,0,0,1-5.82-2V75.48a13.53,13.53,0,0,0,4.33,1.62,6.91,6.91,0,0,0,7.58-3.23A9.9,9.9,0,0,0,84.8,72.49Z"/><path class="cls-21" d="M105.12,96.68c-.78,1.94-3,3.59-6.89,2.52,0,0-5.72,1.75-7.18-2.81,0,0,.19-.68,1.07.19S94,98.91,97.26,98v-9.8l-5-4.95s-.48-1.16,1.36-.48a16.87,16.87,0,0,1,4.27,3s2.52-3,4.46-3.21,0,2.05,0,2.05l-4,3.88V98s4,2.23,5.63-2.23C104.05,95.81,105.89,94.74,105.12,96.68Z"/><path class="cls-15" d="M78.48,52.67l-3.6,2.53-2.72,1.91a42.16,42.16,0,0,1-7.71-14.29.08.08,0,0,1,0,0,32.94,32.94,0,0,1-.89-3.71s0,0,0,0a27.18,27.18,0,0,1-.4-3.17,26.55,26.55,0,0,1,2-12.34l0,0h0c.37-.58,6.2-9.66,3.69,0C68.84,23.52,68.12,30.81,78.48,52.67Z"/><path class="cls-15" d="M132.72,29.87c-.67-3.47-2.17-6.05-3.25-8.38-.24-.53-.47-1-.66-1.3C126.69,16.51,127,22.6,127,22.6c-.1.79-.2,1.55-.31,2.3a0,0,0,0,0,0,0c-3.23,21.58-11.41,27.68-11.41,27.68l8.19,4.57a81.35,81.35,0,0,0,5.43-9v0a48.08,48.08,0,0,0,2.75-6.54s0,0,0-.06A23.05,23.05,0,0,0,132.72,29.87Z"/><path class="cls-15" d="M76.49,33.27,77,33.1h0Z"/><path class="cls-22" d="M131,145.93h0l-.55-.74c-.78-3.29-1.46-6.55-2-9.59-.18-1-.34-1.94-.51-2.94-.38-2.41-.71-4.87-1-7.22l.12-.11-.12.09c-.06-.51-.12-1-.17-1.51a2.13,2.13,0,0,1-.22.18l.21-.19c-.13-1.2-.25-2.36-.36-3.46l.53-.62-.53.59c-.34-3.36-.55-6.17-.67-7.87h0a40.91,40.91,0,0,0,4-12.94,38.14,38.14,0,0,0,.28-6.92h0a1.49,1.49,0,0,0,0-.21v-.06A39.31,39.31,0,0,0,126.3,78s0,0,0-.06a1,1,0,0,1-.07-.15,43.26,43.26,0,0,0-4.37-13.25l-.07-.08,3.74-3.93h0a0,0,0,0,0,0,0h0a86.53,86.53,0,0,0,5.64-9.73l0-.07a59,59,0,0,0,3.5-8.75h0c2.1-6.89,2.14-12.52,1.12-17.08A24.23,24.23,0,0,0,131.24,15a23.25,23.25,0,0,0-7.1-6.12l-.32-.05c-4.31-.71-2.69,1.67-2.69,1.67a26.56,26.56,0,0,1,.83,4.32C124,33.15,108.52,53.6,108.52,53.6a20.84,20.84,0,0,0-2.4-1.22,25.59,25.59,0,0,0-10.35-2,35.12,35.12,0,0,0-7.76.92,30.52,30.52,0,0,0-4.51,1.36c-2.89-7.81-4.94-14.08-6.37-19.15l2.54-.86c-.83.26-1.72.56-2.54.84L77,33.1l-.53.17.53-.18c-4.3-15.41-2.79-19.48-1.8-21.62,1.32-2.87-.94-2.58-.94-2.58a36.89,36.89,0,0,0-5,3.49,26.08,26.08,0,0,0-6.09,7.09,23.85,23.85,0,0,0-3.09,11.69h0a34.37,34.37,0,0,0,1.3,9.47,18.54,18.54,0,0,0-2.56,1.64l2.57-1.61a59.69,59.69,0,0,0,9.53,18.94l-.32,12.58,0,2s-2.64,7.64-3.76,10.3-.38,10.11-.38,10.11c.51,1.82,1,3.61,1.48,5.32,2.15,7.73,3.79,13.75,3.79,13.75a.23.23,0,0,1,0,.07c-.14,1-1.84,12.28-1.49,15.56a103.24,103.24,0,0,1,0,10.44l0,.06-2.82,5.12-2.55,2.51L47,178a93.13,93.13,0,0,0,103.52-5ZM64.45,42.82s-.23.13,0,0a32.94,32.94,0,0,1-.89-3.71s0,0,0,0a27.18,27.18,0,0,1-.4-3.17,26.55,26.55,0,0,1,2-12.34l0,0h0c.37-.58,6.2-9.66,3.69,0,0,0-.72,7.29,9.64,29.15l-3.6,2.53-2.72,1.91A42.16,42.16,0,0,1,64.45,42.82ZM84.22,74.17c-.84,1.84-2.66,4.5-6.24,4.4a11.86,11.86,0,0,1-5.82-2V75.48a13.53,13.53,0,0,0,4.33,1.62,6.91,6.91,0,0,0,7.58-3.23,9.9,9.9,0,0,0,.73-1.38A9.35,9.35,0,0,1,84.22,74.17Zm20.9,22.51c-.78,1.94-3,3.59-6.89,2.52,0,0-5.72,1.75-7.18-2.81,0,0,.19-.68,1.07.19S94,98.91,97.26,98v-9.8l-5-4.95s-.48-1.16,1.36-.48a16.87,16.87,0,0,1,4.27,3s2.52-3,4.46-3.21,0,2.05,0,2.05l-4,3.88V98s4,2.23,5.63-2.23C104.05,95.81,105.89,94.74,105.12,96.68Zm21.56-71.75a0,0,0,0,1,0,0c.11-.75.21-1.51.31-2.3,0,0-.31-6.09,1.81-2.41.19.34.42.77.66,1.3,1.08,2.33,2.58,4.91,3.25,8.38a23.05,23.05,0,0,1-1.05,11.65s0,0,0,.06a48.08,48.08,0,0,1-2.75,6.54v0a81.35,81.35,0,0,1-5.43,9l-8.19-4.57S123.45,46.51,126.68,24.93Zm-5.14,52.56h0a10.22,10.22,0,0,1-4.11,1c-4.12,0-6.21-3.33-7-5a7.5,7.5,0,0,1-.39-1c.15.3.3.58.46.84a7,7,0,0,0,6,3.79,10.11,10.11,0,0,0,4.18-.84h0a12.08,12.08,0,0,0,2.08-1.07l.68,1.26A18.35,18.35,0,0,1,121.54,77.49Z"/><path class="cls-15" d="M61.74,39.9l-.38.23a0,0,0,0,1,0,0Z"/><path class="cls-23" d="M78.48,52.67l-3.6,2.53-2.72,1.91a42.16,42.16,0,0,1-7.71-14.29s-.23.13,0,0a32.94,32.94,0,0,1-.89-3.71s0,0,0,0a27.18,27.18,0,0,1-.4-3.17,26.55,26.55,0,0,1,2-12.34l0,0h0c.37-.58,6.2-9.66,3.69,0C68.84,23.52,68.12,30.81,78.48,52.67Z"/><path class="cls-24" d="M84.8,72.49a9.35,9.35,0,0,1-.58,1.68c-.84,1.84-2.66,4.5-6.24,4.4a11.86,11.86,0,0,1-5.82-2V75.48a13.53,13.53,0,0,0,4.33,1.62,6.91,6.91,0,0,0,7.58-3.23A9.9,9.9,0,0,0,84.8,72.49Z"/><path class="cls-24" d="M123.46,76.46a18.35,18.35,0,0,1-1.92,1h0a10.22,10.22,0,0,1-4.11,1c-4.12,0-6.21-3.33-7-5a7.5,7.5,0,0,1-.39-1c.15.3.3.58.46.84a7,7,0,0,0,6,3.79,10.11,10.11,0,0,0,4.18-.84h0a12.08,12.08,0,0,0,2.08-1.07Z"/><path class="cls-23" d="M131.67,41.52s0,0,0,.06a48.08,48.08,0,0,1-2.75,6.54v0a81.35,81.35,0,0,1-5.43,9l-8.19-4.57s8.18-6.1,11.41-27.68a0,0,0,0,1,0,0c.11-.75.21-1.51.31-2.3,0,0-.31-6.09,1.81-2.41.19.34.42.77.66,1.3,1.08,2.33,2.58,4.91,3.25,8.38A23.05,23.05,0,0,1,131.67,41.52Z"/><path class="cls-15" d="M189.19,95.93a94,94,0,0,1-.55,10.26,1.94,1.94,0,0,1,0,.24,1.24,1.24,0,0,1,0,.27c0,.2,0,.4-.07.6s0,.21,0,.32,0,.37-.08.56c0,0,0,.09,0,.13-.28,2.3-.65,4.59-1.12,6.84a.59.59,0,0,1,0,.13l0,.17a1.29,1.29,0,0,1,0,.19c-.28,1.39-.6,2.77-.94,4.14l-.36,1.36c-.07.24-.13.49-.2.73s-.07.23-.1.35-.13.43-.19.65-.11.39-.17.58c-.11.38-.23.76-.34,1.13l-.12.39-.05.14a95.24,95.24,0,0,1-13.33,26.66,95,95,0,0,1-6.39,8q-3.18,3.57-6.71,6.82a89.93,89.93,0,0,1-7.71,6.35l-19.53-27h0l-.55-.74c-.78-3.29-1.46-6.55-2-9.59-.18-1-.34-1.94-.51-2.94-.38-2.41-.71-4.87-1-7.22l.12-.11-.12.09c-.06-.51-.12-1-.17-1.51a2.13,2.13,0,0,1-.22.18l.21-.19c-.13-1.2-.25-2.36-.36-3.46l.53-.62-.53.59c-.34-3.36-.55-6.17-.67-7.87h0a40.91,40.91,0,0,0,4-12.94,38.14,38.14,0,0,0,.28-6.92h0a1.49,1.49,0,0,0,0-.21v-.06A39.31,39.31,0,0,0,126.3,78s0,0,0-.06a1,1,0,0,1-.07-.15,43.26,43.26,0,0,0-4.37-13.25l-.07-.08,3.74-3.93h0a0,0,0,0,0,0,0h0a86.53,86.53,0,0,0,5.64-9.73l0-.07a59,59,0,0,0,3.5-8.75h0c2.1-6.89,2.14-12.52,1.12-17.08A24.23,24.23,0,0,0,131.24,15a23.25,23.25,0,0,0-7.1-6.12l-.32-.05c-4.31-.71-2.69,1.67-2.69,1.67a26.56,26.56,0,0,1,.83,4.32C124,33.15,108.52,53.6,108.52,53.6a20.84,20.84,0,0,0-2.4-1.22,25.59,25.59,0,0,0-10.35-2,35.12,35.12,0,0,0-7.76.92,30.52,30.52,0,0,0-4.51,1.36c-2.89-7.81-4.94-14.08-6.37-19.15l2.54-.86c-.83.26-1.72.56-2.54.84L77,33.1h0c-4.3-15.41-2.79-19.48-1.8-21.62,1.32-2.87-.94-2.58-.94-2.58a36.89,36.89,0,0,0-5,3.49,26.08,26.08,0,0,0-6.09,7.09,23.85,23.85,0,0,0-3.09,11.69h0a34.37,34.37,0,0,0,1.3,9.47,18.54,18.54,0,0,0-2.56,1.64l2.57-1.61a59.69,59.69,0,0,0,9.53,18.94l-.32,12.58,0,2s-2.64,7.64-3.76,10.3-.38,10.11-.38,10.11c.51,1.82,1,3.61,1.48,5.32,2.15,7.73,3.79,13.75,3.79,13.75a.23.23,0,0,1,0,.07c-.14,1-1.84,12.28-1.49,15.56a103.24,103.24,0,0,1,0,10.44l0,.06-2.82,5.12-2.55,2.51L47,178a93,93,0,0,1-8.31-5.61q-3.79-2.88-7.3-6.13h0q-3.5-3.25-6.67-6.85h0a94.78,94.78,0,0,1-6.62-8.43h0A95.53,95.53,0,0,1,13,142.68a93.26,93.26,0,0,1-4.47-9.15h0a94.17,94.17,0,0,1-3.37-9.24q-1.35-4.43-2.3-9A97.32,97.32,0,0,1,1.33,105q-.42-4.45-.42-9c0-.3,0-.6,0-.9a93.87,93.87,0,0,1,.7-10.8A95,95,0,0,1,3.44,73.87q1-4.4,2.45-8.61a95.34,95.34,0,0,1,14.19-27,89,89,0,0,1,6.3-7.55,98.62,98.62,0,0,1,7.25-7.06h0q3.47-3,7.22-5.71A92.43,92.43,0,0,1,49,12.71,93.55,93.55,0,0,1,66.7,5,91.82,91.82,0,0,1,76.52,2.4h0A89.06,89.06,0,0,1,86.26,1C89.15.69,92.09.55,95.05.55H96q3.77,0,7.44.37l1.86.18a88.8,88.8,0,0,1,10.5,1.76,90.49,90.49,0,0,1,9.12,2.57l.37.12,1.81.64.39.14,2,.77,1.59.65.61.26.14.06.45.19.67.3.58.25.19.08.06,0,.06,0a.22.22,0,0,0,.11,0h0l.12.05q4.29,2,8.33,4.38l.29.17.12.07.29.18.2.12.45.28.25.15c.77.49,1.76,1.12,2.78,1.79l1.37.92c.83.58,1.65,1.17,2.46,1.78l.07,0,.07.06a93.07,93.07,0,0,1,7.59,6.29,0,0,0,0,1,0,0l.09.08.7.65.87.83.13.12q2.19,2.13,4.23,4.38l.06.06.14.16a94.86,94.86,0,0,1,13,18.47c.17.3.33.6.49.9.28.51.54,1,.8,1.53l.66,1.33c.1.21.2.41.29.61l.13.28c.08.18.17.35.24.53.63,1.32,1.21,2.64,1.75,4,0,.1.09.21.13.31.15.34.28.67.41,1s.19.49.29.74c.21.54.42,1.09.61,1.63.1.29.2.58.31.88s.21.6.3.9a91.67,91.67,0,0,1,3,11h0l0,.11a.31.31,0,0,1,0,.09s0,.1,0,.17,0,0,0,.06,0,.06,0,.09.05.24.07.36l.09.44c0,.19.07.38.11.57s.07.35.1.53.09.49.13.73c.15.83.31,1.76.46,2.7.05.28.09.57.13.85s.08.49.11.73c.08.5.14,1,.19,1.5,0,.22.05.45.07.68a2.32,2.32,0,0,1,.05.38,95.88,95.88,0,0,1,.53,9.79C189.19,95.63,189.19,95.78,189.19,95.93Z"/><ellipse class="cls-25" cx="74.77" cy="85.31" rx="6.32" ry="3.93"/><ellipse class="cls-25" cx="119.25" cy="84.19" rx="6.32" ry="3.93"/><circle class="cls-25" cx="97.61" cy="91.06" r="12.31"/><path class="cls-26" d="M105.12,96.68c-.78,1.94-3,3.59-6.89,2.52,0,0-5.72,1.75-7.18-2.81,0,0,.19-.68,1.07.19S94,98.91,97.26,98v-9.8l-5-4.95s-.48-1.16,1.36-.48a16.87,16.87,0,0,1,4.27,3s2.52-3,4.46-3.21,0,2.05,0,2.05l-4,3.88V98s4,2.23,5.63-2.23C104.05,95.81,105.89,94.74,105.12,96.68Z"/><polygon class="cls-9" points="61.07 144.47 62.82 141.94 67.27 144.92 64.72 147.43 61.07 144.47"/><path class="cls-9" d="M122,64.29s3.59,7.36,4.46,13.06l2.69-2Z"/><line class="cls-27" x1="105.93" y1="106.52" x2="102.79" y2="98.92"/><polyline class="cls-21" points="112.93 111.67 110.14 104.92 102.09 108.24 104.87 114.99"/><polyline class="cls-21" points="105.01 124.5 101.64 116.33 107.78 113.79 111.16 121.97"/><ellipse class="cls-28" cx="112.31" cy="124.38" rx="2.92" ry="2.9" transform="translate(-38.93 52.2) rotate(-22.41)"/><ellipse class="cls-29" cx="104.6" cy="123.55" rx="2.92" ry="2.9" transform="translate(-39.2 49.2) rotate(-22.41)"/><ellipse class="cls-30" cx="114.03" cy="114.35" rx="2.92" ry="2.9" transform="translate(-34.98 52.1) rotate(-22.41)"/></g></g></svg>